<?xml version="1.0" encoding="UTF-8"?>
<svg id="Ebene_1" xmlns="http://www.w3.org/2000/svg" version="1.1" viewBox="0 0 512 512">
  <!-- Generator: Adobe Illustrator 29.0.1, SVG Export Plug-In . SVG Version: 2.1.0 Build 192)  -->
  <defs>
    <style>
      .st0 {
        fill: #fff;
      }
    </style>
  </defs>
  <circle class="st0" cx="256" cy="272" r="64"/>
  <path class="st0" d="M432,144h-59c-3,0-6.7-1.9-9.6-5l-25.9-40.9c-.4-.6-.9-1.3-1.4-1.8-9-10.4-21.1-16.2-34.1-16.2h-92c-13,0-25.1,5.8-34.1,16.2-.5.6-1,1.2-1.4,1.8l-25.9,41c-2.2,2.4-5.3,5-8.6,5v-8c0-8.8-7.2-16-16-16h-24c-8.8,0-16,7.2-16,16v8h-4c-26.5,0-48,21.5-48,48v191.9c0,26.5,21.5,48,48,48h352c26.5,0,48-21.5,48-48v-192c0-26.5-21.5-48-48-48ZM256,368c-53,0-96-43-96-96s43-96,96-96,96,43,96,96c0,53-43,95.9-96,96Z"/>
</svg>