<svg xmlns="http://www.w3.org/2000/svg" width="24.069" height="22.66" viewBox="0 0 24.069 22.66">
  <path id="mode_comment_24dp_5F6368_FILL1_wght400_GRAD0_opsz24" d="M82.057-863.545a1.981,1.981,0,0,1-1.453-.6A1.981,1.981,0,0,1,80-865.6v-12.341a1.981,1.981,0,0,1,.6-1.453,1.981,1.981,0,0,1,1.453-.6H98.512a1.981,1.981,0,0,1,1.453.6,1.981,1.981,0,0,1,.6,1.453v16.018a.968.968,0,0,1-.63.964.938.938,0,0,1-1.118-.219l-2.365-2.365Z" transform="translate(-78.25 881.75)" fill="none" stroke="#242425" stroke-width="3.5"/>
</svg>
