<svg xmlns="http://www.w3.org/2000/svg" width="39.49" height="39.173" viewBox="0 0 39.49 39.173">
  <path id="Pfad_14" data-name="Pfad 14" d="M94.193,5.952C95.813,4.491,97.218,3,98.84,1.808a8.883,8.883,0,0,1,9.429-.835,9.46,9.46,0,0,1,5.743,8.56,18.617,18.617,0,0,1-3.923,12.212c-3.118,4.134-6.664,7.947-10.067,11.863-1.408,1.621-2.926,3.149-4.389,4.722-1.072,1.152-1.6,1.111-2.674-.059C89.586,34.6,86.1,31.037,82.819,27.287c-3.789-4.333-7.148-8.958-8.135-14.856-.735-4.392,1.359-9.418,5.207-11.3A9.934,9.934,0,0,1,91.877,3.4c.791.835,1.547,1.7,2.316,2.55M101.553,3.1c-.034.167-.068.335-.1.5l5.733.422c.014-.207.028-.413.042-.62a6.677,6.677,0,0,0-5.672-.3m-17.8-.517-.024.591h2.857l.007-.346-2.84-.245" transform="translate(-74.538 0)" fill="#fff"/>
</svg>
