<svg id="Gruppe_10" data-name="Gruppe 10" xmlns="http://www.w3.org/2000/svg" xmlns:xlink="http://www.w3.org/1999/xlink" width="87.945" height="129.492" viewBox="0 0 87.945 129.492">
  <defs>
    <clipPath id="clip-path">
      <rect id="Rechteck_6" data-name="Rechteck 6" width="87.945" height="129.492" fill="#459bcb"/>
    </clipPath>
  </defs>
  <g id="Gruppe_3" data-name="Gruppe 3" clip-path="url(#clip-path)">
    <path id="Pfad_11" data-name="Pfad 11" d="M57.571,70.788V81.825H56.6c-3.452-8.414-11.6-13.1-22.087-13.1C15.463,68.723,0,84.857,0,109.823c0,24,14.218,40.963,34.516,40.963,10.489,0,18.635-4.547,22.087-13.1h.968v11.038H87.945V70.788ZM59.088,112.4c-2.969,3.932-6.346,7.56-9.583,11.286-1.344,1.54-2.79,2.994-4.181,4.491-1.019,1.1-1.522,1.056-2.546-.057-3.213-3.491-6.534-6.884-9.658-10.451-3.607-4.12-6.806-8.522-7.746-14.13-.7-4.181,1.3-8.963,4.96-10.751a9.472,9.472,0,0,1,11.41,2.159c.756.8,1.475,1.619,2.208,2.426,1.54-1.389,2.879-2.806,4.425-3.941a8.459,8.459,0,0,1,8.977-.793,8.995,8.995,0,0,1,5.468,8.142A17.687,17.687,0,0,1,59.088,112.4" transform="translate(0 -21.294)" fill="#459bcb"/>
    <path id="Pfad_12" data-name="Pfad 12" d="M91.573,5.159c1.4-1.266,2.622-2.557,4.027-3.592a7.7,7.7,0,0,1,8.172-.724,8.2,8.2,0,0,1,4.977,7.419,16.135,16.135,0,0,1-3.4,10.584c-2.7,3.583-5.776,6.888-8.725,10.282-1.22,1.405-2.536,2.729-3.8,4.093-.929,1-1.384.963-2.318-.051-2.923-3.18-5.947-6.271-8.788-9.521-3.284-3.756-6.195-7.763-7.051-12.875-.637-3.806,1.178-8.162,4.513-9.791A8.61,8.61,0,0,1,89.565,2.949c.685.723,1.341,1.474,2.008,2.21m6.378-2.469c-.03.145-.059.291-.09.435l4.969.366c.012-.179.024-.358.037-.538a5.787,5.787,0,0,0-4.916-.264M82.526,2.242l-.021.512h2.476l.006-.3-2.462-.213" transform="translate(-23.096 0)" fill="#459bcb"/>
    <path id="Pfad_13" data-name="Pfad 13" d="M28.079,5.731c1.4-1.266,2.622-2.557,4.027-3.592a7.7,7.7,0,0,1,8.172-.724,8.2,8.2,0,0,1,4.977,7.419,16.135,16.135,0,0,1-3.4,10.584C39.153,23,36.08,26.306,33.131,29.7c-1.22,1.405-2.536,2.729-3.8,4.093-.929,1-1.384.963-2.318-.051-2.923-3.18-5.947-6.271-8.788-9.521-3.284-3.756-6.195-7.763-7.051-12.875-.637-3.806,1.178-8.162,4.513-9.791A8.61,8.61,0,0,1,26.071,3.521c.685.723,1.341,1.474,2.008,2.21m6.378-2.469c-.03.145-.059.291-.09.435l4.969.366c.012-.179.024-.358.036-.538a5.785,5.785,0,0,0-4.915-.264M19.032,2.814l-.021.512h2.476l.006-.3-2.462-.213" transform="translate(-3.422 -0.177)" fill="#459bcb"/>
  </g>
</svg>
