<svg id="Gruppe_5" data-name="Gruppe 5" xmlns="http://www.w3.org/2000/svg" xmlns:xlink="http://www.w3.org/1999/xlink" width="246.65" height="58.824" viewBox="0 0 246.65 58.824">
  <defs>
    <clipPath id="clip-path">
      <rect id="Rechteck_5" data-name="Rechteck 5" width="246.65" height="58.824" fill="#459bcb"/>
    </clipPath>
  </defs>
  <g id="Gruppe_1" data-name="Gruppe 1" clip-path="url(#clip-path)">
    <path id="Pfad_1" data-name="Pfad 1" d="M14.2,92.238c.959,0,1.535-.528,1.535-1.3,0-.959-.624-1.343-1.535-1.343H9.354C3.694,89.6,0,86.674,0,81.11c0-6.668,4.749-9.45,9.737-9.45h14.2v6.476H11.128c-.911,0-1.535.48-1.535,1.247a1.387,1.387,0,0,0,1.535,1.439h5.756c5.708,0,9.114,3.694,9.114,8.586,0,5.948-3.55,9.354-9.833,9.354H.911V92.238Z" transform="translate(0 -54.473)" fill="#459bcb"/>
    <path id="Pfad_2" data-name="Pfad 2" d="M130.789,78.062a4.459,4.459,0,0,0-4.653,4.845c0,3.214,2.015,4.941,4.653,4.941,2.206,0,4.125-1.151,4.557-3.262h9.834c-.288,6.811-6,12.615-14.295,12.615-9.4,0-14.486-5.948-14.486-14.294,0-8.586,6.044-14.246,14.438-14.246,7.867,0,14.295,4.7,14.343,13.1h-9.786a4.488,4.488,0,0,0-4.6-3.694" transform="translate(-88.482 -52.192)" fill="#459bcb"/>
    <path id="Pfad_3" data-name="Pfad 3" d="M250.4,44.66h10.553V54.973h.384c1.055-2.734,4.077-4.557,7.627-4.557,5.516,0,9.4,2.974,9.4,11.56V78.238H267.81V64.375c0-3.118-1.3-4.557-3.406-4.557-2.015,0-3.453,1.439-3.453,4.509V78.238H250.4Z" transform="translate(-190.342 -33.949)" fill="#459bcb"/>
    <path id="Pfad_4" data-name="Pfad 4" d="M532.991,82.3c-6.668,0-10.313-1.631-10.313-9.594V61.436h-2.686V54.48h2.686v-3.5l10.6-1.919v5.42h5.372v6.955h-5.372v8.586c0,2.206.815,2.878,3.07,2.878a13.787,13.787,0,0,0,2.3-.1v9.162a40.211,40.211,0,0,1-5.66.336" transform="translate(-395.276 -37.293)" fill="#459bcb"/>
    <path id="Pfad_5" data-name="Pfad 5" d="M619.084,78.567v-.336H607.236V71.66h25.039v5.948L620.619,91.95v.336h12.088v6.476H607.188V92.238Z" transform="translate(-461.558 -54.473)" fill="#459bcb"/>
    <path id="Pfad_6" data-name="Pfad 6" d="M735.016,97.2c-9.834,0-14.63-6.38-14.63-14.246s4.989-14.294,14.342-14.294c9.162,0,13.959,5.468,13.959,14.918v.911H730.075c.24,2.974,2.207,4.221,4.7,4.221a4.252,4.252,0,0,0,4.029-2.063h9.737c-.672,4.509-4.509,10.553-13.527,10.553m-4.845-16.453h9.258c-.48-2.686-2.3-3.742-4.653-3.742s-4.125,1.055-4.6,3.742" transform="translate(-547.607 -52.192)" fill="#459bcb"/>
    <rect id="Rechteck_4" data-name="Rechteck 4" width="10.553" height="33.578" transform="translate(204.438 10.711)" fill="#459bcb"/>
    <path id="Pfad_7" data-name="Pfad 7" d="M925.014,97.2c-9.834,0-14.63-6.38-14.63-14.246s4.989-14.294,14.342-14.294c9.162,0,13.959,5.468,13.959,14.918v.911H920.074c.24,2.974,2.206,4.221,4.7,4.221a4.253,4.253,0,0,0,4.029-2.063h9.737c-.672,4.509-4.509,10.553-13.527,10.553m-4.845-16.453h9.258c-.48-2.686-2.3-3.742-4.653-3.742s-4.125,1.055-4.6,3.742" transform="translate(-692.035 -52.192)" fill="#459bcb"/>
    <path id="Pfad_8" data-name="Pfad 8" d="M401.616,69.441v3.836h-.336c-1.2-2.924-4.031-4.553-7.676-4.553-6.621,0-12,5.607-12,14.283,0,8.34,4.941,14.236,12,14.236,3.645,0,6.476-1.58,7.676-4.553h.336v3.836h10.556V69.441Zm.527,14.461c-1.032,1.367-2.205,2.627-3.33,3.922-.467.535-.97,1.04-1.453,1.561-.354.382-.529.367-.885-.02-1.116-1.213-2.271-2.392-3.356-3.632a10.045,10.045,0,0,1-2.692-4.911,3.593,3.593,0,0,1,1.724-3.736,3.292,3.292,0,0,1,3.965.75c.263.277.513.563.767.843.535-.483,1-.975,1.538-1.37a2.94,2.94,0,0,1,3.12-.276,3.126,3.126,0,0,1,1.9,2.829,6.146,6.146,0,0,1-1.3,4.038" transform="translate(-290.083 -52.24)" fill="#459bcb"/>
    <path id="Pfad_9" data-name="Pfad 9" d="M462.066,1.793c.488-.44.911-.889,1.4-1.248a2.675,2.675,0,0,1,2.84-.252,2.849,2.849,0,0,1,1.73,2.578,5.607,5.607,0,0,1-1.181,3.678c-.939,1.245-2.007,2.394-3.032,3.573-.424.488-.881.948-1.322,1.422-.323.347-.481.335-.805-.018-1.016-1.1-2.067-2.179-3.054-3.309a9.157,9.157,0,0,1-2.45-4.475,3.273,3.273,0,0,1,1.568-3.4,2.992,2.992,0,0,1,3.61.683c.238.251.466.512.7.768m2.217-.858-.031.151,1.727.127c0-.062.008-.124.012-.187a2.01,2.01,0,0,0-1.708-.092m-5.36-.156-.007.178h.861l0-.1-.856-.074" transform="translate(-346.743 0)" fill="#459bcb"/>
    <path id="Pfad_10" data-name="Pfad 10" d="M398.572,2.365c.488-.44.911-.889,1.4-1.248a2.675,2.675,0,0,1,2.84-.252,2.85,2.85,0,0,1,1.73,2.578,5.607,5.607,0,0,1-1.181,3.678c-.939,1.245-2.007,2.394-3.032,3.573-.424.488-.881.948-1.322,1.422-.323.347-.481.335-.805-.018-1.016-1.1-2.067-2.179-3.054-3.309a9.158,9.158,0,0,1-2.45-4.475,3.273,3.273,0,0,1,1.568-3.4,2.992,2.992,0,0,1,3.61.683c.238.251.466.512.7.768m2.217-.858-.031.151,1.727.127c0-.062.008-.124.013-.187a2.011,2.011,0,0,0-1.708-.092m-5.361-.156-.007.178h.861l0-.1-.856-.074" transform="translate(-298.477 -0.435)" fill="#459bcb"/>
    <text id="BBZ_Dating" data-name="BBZ Dating" transform="translate(0.191 54.916)" fill="#459bcb" font-size="7" font-family="Gotham-Bold, Gotham" font-weight="700"><tspan x="0" y="0">BBZ D</tspan><tspan y="0" letter-spacing="-0.005em">a</tspan><tspan y="0">ting</tspan></text>
  </g>
</svg>
