<svg xmlns="http://www.w3.org/2000/svg" width="18.253" height="18.401" viewBox="0 0 18.253 18.401">
  <path id="Pfad_24" data-name="Pfad 24" d="M9.159,15.48c.755.681,1.41,1.375,2.165,1.931a4.139,4.139,0,0,0,4.394.389,4.408,4.408,0,0,0,2.676-3.989,8.675,8.675,0,0,0-1.828-5.691c-1.453-1.926-3.105-3.7-4.691-5.528-.656-.755-1.363-1.467-2.045-2.2-.5-.537-.744-.518-1.246.027-1.572,1.709-3.2,3.371-4.725,5.119A14.167,14.167,0,0,0,.068,12.461a5.064,5.064,0,0,0,2.426,5.264,4.629,4.629,0,0,0,5.585-1.057c.368-.389.721-.793,1.079-1.188m3.429,1.328c-.016-.078-.032-.156-.048-.234l2.672-.2c.006.1.013.193.02.289a3.111,3.111,0,0,1-2.643.142m-8.293.241-.011-.275H5.615l0,.161-1.324.114" transform="translate(18.253) rotate(90)" fill="#459bcb"/>
</svg>
